<?xml version="1.0" encoding="utf-8"?>
<!-- Generator: Adobe Illustrator 19.0.0, SVG Export Plug-In . SVG Version: 6.00 Build 0)  -->
<svg version="1.1" baseProfile="tiny" id="character"
	 xmlns="http://www.w3.org/2000/svg" xmlns:xlink="http://www.w3.org/1999/xlink" x="0px" y="0px" viewBox="99 -66 1221 900"
	 xml:space="preserve">
<g id="Body">
	<g id="RightArm">
		<path id="XMLID_48_" fill="#F0AC8C" d="M652.5,500.3h-43.1c-16.5,0-30-13.5-30-30V210.6c0-16.5,13.5-30,30-30h43.1
			c16.5,0,30,13.5,30,30v259.7C682.5,486.8,669,500.3,652.5,500.3z"/>
		<path id="XMLID_47_" fill="#008790" d="M682.6,222.3v-14.7c0-32.9-22.7-58.3-51.2-58.3h0.2c-28.5,0-52,25.4-52,58.3v14.7H682.6z"
			/>
		<rect id="XMLID_46_" x="567.4" y="221.9" fill="#61265E" width="127.2" height="19.8"/>
		<path id="XMLID_45_" fill="#F0AC8C" d="M671.4,520.1L671.4,520.1c6.1,0,11.2-5,11.2-11.2v-66.2c0-6.1-5-11.2-11.2-11.2l0,0
			c-6.1,0-11.2,5-11.2,11.2v66.2C660.2,515.1,665.2,520.1,671.4,520.1z"/>
		<path id="XMLID_44_" fill="#F0AC8C" d="M643.9,520.1L643.9,520.1c6.1,0,11.2-5,11.2-11.2v-66.2c0-6.1-5-11.2-11.2-11.2l0,0
			c-6.1,0-11.2,5-11.2,11.2v66.2C632.7,515.1,637.7,520.1,643.9,520.1z"/>
		<path id="XMLID_43_" fill="#F0AC8C" d="M617.2,520.1L617.2,520.1c6.1,0,11.2-5,11.2-11.2v-66.2c0-6.1-5-11.2-11.2-11.2l0,0
			c-6.1,0-11.2,5-11.2,11.2v66.2C606,515.1,611.1,520.1,617.2,520.1z"/>
		<path id="XMLID_42_" fill="#F0AC8C" d="M590.6,519.7L590.6,519.7c6.1,0,11.2-5,11.2-11.2v-66.2c0-6.1-5-11.2-11.2-11.2l0,0
			c-6.1,0-11.2,5-11.2,11.2v66.2C579.4,514.6,584.4,519.7,590.6,519.7z"/>
		<rect id="XMLID_41_" x="579.4" y="241.6" fill="#BF8B77" width="103.1" height="9.9"/>
		<ellipse id="XMLID_50_" fill="#F2C096" cx="613.8" cy="434.2" rx="26.6" ry="27.5"/>
		<path id="XMLID_49_" fill="#F2C096" d="M564.4,484.1L564.4,484.1c5.1,3.4,12.1,2,15.5-3.2l36.5-55.2c3.4-5.1,2-12.1-3.2-15.5l0,0
			c-5.1-3.4-12.1-2-15.5,3.2l-36.5,55.2C557.8,473.7,559.2,480.7,564.4,484.1z"/>
		<image width="104" height="75" id="XMLID_94_" xlink:href="4A2146C.png"  transform="matrix(1 0 0 1 580 148)">
		</image>
	</g>
	<g id="LeftLeg">
		<rect id="XMLID_79_" x="690.7" y="288" fill="#61265E" width="30.7" height="345.5"/>
		<rect id="XMLID_67_" x="677.6" y="633.6" fill="#92CFF4" width="59.3" height="25"/>
		<rect id="XMLID_66_" x="693.3" y="658.6" fill="#F2C096" width="25.5" height="35.2"/>
		<rect id="XMLID_59_" x="693.3" y="693.7" fill="#61265E" width="25.5" height="6.4"/>
		<rect id="XMLID_58_" x="693.3" y="700.1" fill="#FFE240" width="25.5" height="5.7"/>
		<rect id="XMLID_57_" x="693.3" y="705.7" width="25.5" height="9.8"/>
		<rect id="XMLID_56_" x="693.3" y="658.6" fill="#F0AC8C" width="25.5" height="6.4"/>
		<rect id="XMLID_55_" x="693.3" y="715.7" fill="#FFE240" width="25.5" height="11.1"/>
		<path id="XMLID_54_" fill="#E11339" d="M725.5,745.3c-0.3-17-13.5-29.7-29.7-29.7s-29.3,12.7-29.7,29.7H725.5z"/>
		<path id="XMLID_53_" fill="#E11339" d="M696.8,721.3c-0.1-12-4.8-21.1-10.5-21.1s-10.3,9.1-10.5,21.1H696.8z"/>
		<path id="XMLID_52_" fill="#E11339" d="M698.2,745.3c-0.5-22-18.2-39.5-40-39.5s-39.6,17.5-40,39.5H698.2z"/>
		<rect id="XMLID_51_" x="618.1" y="745.3" width="107.4" height="6"/>
		<path id="XMLID_40_" fill="none" stroke="#EAA3A0" stroke-width="4" stroke-linecap="round" stroke-miterlimit="10" d="
			M637.2,731.1c0-6.9,5.6-12.5,12.5-12.5"/>
	</g>
	<g id="RightLeg">
		<rect id="XMLID_1_" x="761.2" y="288" fill="#61265E" width="30.7" height="345.5"/>
		<rect id="XMLID_24_" x="748" y="633.6" fill="#92CFF4" width="59.3" height="25"/>
		<rect id="XMLID_26_" x="763.8" y="658.6" fill="#F2C096" width="25.5" height="35.2"/>
		<rect id="XMLID_37_" x="763.8" y="693.7" fill="#61265E" width="25.5" height="6.4"/>
		<rect id="XMLID_36_" x="763.8" y="700.1" fill="#FFE240" width="25.5" height="5.7"/>
		<rect id="XMLID_28_" x="763.8" y="705.7" width="25.5" height="9.8"/>
		<rect id="XMLID_27_" x="763.8" y="658.6" fill="#F0AC8C" width="25.5" height="6.4"/>
		<rect id="XMLID_29_" x="763.8" y="715.7" fill="#FFE240" width="25.5" height="11.1"/>
		<path id="XMLID_32_" fill="#E11339" d="M796,745.3c-0.3-17-13.5-29.7-29.7-29.7s-29.3,12.7-29.7,29.7H796z"/>
		<path id="XMLID_38_" fill="#E11339" d="M767.2,721.3c-0.1-12-4.8-21.1-10.5-21.1s-10.3,9.1-10.5,21.1H767.2z"/>
		<path id="XMLID_35_" fill="#E8593B" d="M768.6,745.3c-0.5-22-18.2-39.5-40-39.5s-39.6,17.5-40,39.5H768.6z"/>
		<rect id="XMLID_33_" x="688.6" y="745.3" width="107.4" height="6"/>
		<path id="XMLID_34_" fill="none" stroke="#EAA3A0" stroke-width="4" stroke-linecap="round" stroke-miterlimit="10" d="
			M707.7,731.1c0-6.9,5.6-12.5,12.5-12.5"/>
	</g>
	<circle id="XMLID_39_" fill="#61265E" cx="734.9" cy="353.4" r="81.7"/>
	<g id="Chest">
		<circle id="XMLID_31_" fill="#008790" cx="722.5" cy="264.4" r="121.6"/>
		<path id="XMLID_30_" fill="#F2C096" d="M699,307L699,307c-30.7,0-55.7-25.1-55.7-55.7v-51.8c0-30.7,25.1-55.7,55.7-55.7l0,0
			c30.7,0,55.7,25.1,55.7,55.7v51.8C754.7,281.9,729.6,307,699,307z"/>
	</g>
	<g id="LeftArm">
		<path id="XMLID_81_" fill="#F0AC8C" d="M764.5,484.8L764.5,484.8c5.1,3.4,12.1,2,15.5-3.2l36.5-55.2c3.4-5.1,2-12.1-3.2-15.5l0,0
			c-5.1-3.4-12.1-2-15.5,3.2l-36.5,55.2C757.9,474.5,759.4,481.4,764.5,484.8z"/>
		<path id="XMLID_78_" fill="#F2C096" d="M853.7,502.1h-43.1c-16.5,0-30-13.5-30-30V212.3c0-16.5,13.5-30,30-30h43.1
			c16.5,0,30,13.5,30,30V472C883.7,488.6,870.2,502.1,853.7,502.1z"/>
		<path id="XMLID_77_" fill="#008790" d="M883.6,224.3v-15c0-32.9-22.6-59-51.1-59h0.2c-28.5,0-52.1,26.1-52.1,59v15H883.6z"/>
		<rect id="XMLID_76_" x="768.5" y="223.6" fill="#61265E" width="127.2" height="19.8"/>
		<path id="XMLID_75_" fill="#F2C096" d="M872.5,521.8L872.5,521.8c6.1,0,11.2-5,11.2-11.2v-66.2c0-6.1-5-11.2-11.2-11.2l0,0
			c-6.1,0-11.2,5-11.2,11.2v66.2C861.3,516.8,866.3,521.8,872.5,521.8z"/>
		<path id="XMLID_74_" fill="#F2C096" d="M845,521.8L845,521.8c6.1,0,11.2-5,11.2-11.2v-66.2c0-6.1-5-11.2-11.2-11.2l0,0
			c-6.1,0-11.2,5-11.2,11.2v66.2C833.8,516.8,838.8,521.8,845,521.8z"/>
		<path id="XMLID_73_" fill="#F2C096" d="M818.3,521.8L818.3,521.8c6.1,0,11.2-5,11.2-11.2v-66.2c0-6.1-5-11.2-11.2-11.2l0,0
			c-6.1,0-11.2,5-11.2,11.2v66.2C807.2,516.8,812.2,521.8,818.3,521.8z"/>
		<path id="XMLID_72_" fill="#F2C096" d="M791.7,521.4L791.7,521.4c6.1,0,11.2-5,11.2-11.2V444c0-6.1-5-11.2-11.2-11.2l0,0
			c-6.1,0-11.2,5-11.2,11.2v66.2C780.5,516.4,785.5,521.4,791.7,521.4z"/>
		<rect id="XMLID_71_" x="780.5" y="243.3" fill="#F0AC8C" width="103.1" height="9.9"/>
		<path id="XMLID_70_" fill="#F0AC8C" d="M876.1,345.6H831c-0.8,0-1.5-0.7-1.5-1.5v-2.2c0-0.8,0.7-1.5,1.5-1.5h45.1
			c0.8,0,1.5,0.7,1.5,1.5v2.2C877.6,345,877,345.6,876.1,345.6z"/>
		<path id="XMLID_69_" fill="#F0AC8C" d="M876.1,360.2H831c-0.8,0-1.5-0.7-1.5-1.5v-2.2c0-0.8,0.7-1.5,1.5-1.5h45.1
			c0.8,0,1.5,0.7,1.5,1.5v2.2C877.6,359.6,877,360.2,876.1,360.2z"/>
		<path id="XMLID_68_" fill="#F0AC8C" d="M876.1,375.7H831c-0.8,0-1.5-0.7-1.5-1.5V372c0-0.8,0.7-1.5,1.5-1.5h45.1
			c0.8,0,1.5,0.7,1.5,1.5v2.2C877.6,375,877,375.7,876.1,375.7z"/>
		<image width="104" height="75" id="XMLID_93_" xlink:href="4A2146B.png"  transform="matrix(1 0 0 1 780 150)">
		</image>
	</g>
</g>
<g id="Head">
	<g id="shape">
		<path id="XMLID_65_" fill="#F0AC8C" d="M673.5,211.1L673.5,211.1c-32.1,0-58.4-26.3-58.4-58.4V53.6c0-32.1,26.3-58.4,58.4-58.4
			l0,0c32.1,0,58.4,26.3,58.4,58.4v99.1C731.9,184.8,705.6,211.1,673.5,211.1z"/>
		<circle id="XMLID_63_" fill="#F0AC8C" cx="735" cy="82.9" r="13"/>
		<circle id="XMLID_62_" fill="#DE5065" cx="736.3" cy="82.4" r="7.3"/>
		<path id="XMLID_61_" fill="#E11339" d="M644.7,63.4H609c-1.8,0-3.2-1.5-3.2-3.2v-2.1c0-1.8,1.5-3.2,3.2-3.2h35.7
			c1.8,0,3.2,1.5,3.2,3.2v2.1C647.9,62,646.5,63.4,644.7,63.4z"/>
		<path id="XMLID_60_" fill="#E11339" d="M702.9,63.4h-36.5c-1.6,0-2.8-1.3-2.8-2.8v-2.9c0-1.6,1.3-2.8,2.8-2.8h36.5
			c1.6,0,2.8,1.3,2.8,2.8v2.9C705.7,62.2,704.4,63.4,702.9,63.4z"/>
		<g id="Nose">
			<path id="b" fill="#DE5065" d="M658.2,129.9L658.2,129.9c-8.2,0-14.9-6.7-14.9-14.9V79.6c0-8.2,6.7-14.9,14.9-14.9l0,0
				c8.2,0,14.9,6.7,14.9,14.9V115C673.1,123.2,666.4,129.9,658.2,129.9z"/>
			<path id="a" display="none" fill="#DE5065" d="M658.3,112.2L658.3,112.2c-8.2,0-14.9-6.7-14.9-14.9v-8.6
				c0-8.2,6.7-14.9,14.9-14.9l0,0c8.2,0,14.9,6.7,14.9,14.9v8.6C673.2,105.5,666.5,112.2,658.3,112.2z"/>
		</g>
	</g>
	<g id="Glasses">
		<rect id="XMLID_3_" x="604.6" y="76.6" width="121.5" height="6.5"/>
		<path id="XMLID_10_" d="M623,76.3l-4.8,21.6c1.5,0.6,3,0.9,4.6,1.2l5.1-22.7H623V76.3z"/>
		<path id="XMLID_11_" d="M649.6,76.3h-18.7l-5.2,23.1c0.2,0,0.6,0.1,0.8,0.1c12.7,0,23.1-10.4,23.1-23.1
			C649.6,76.4,649.6,76.3,649.6,76.3z"/>
		<path id="XMLID_12_" d="M603.5,76.3c0,5,2.7,12.3,7,16.5l3.7-16.5H603.5z"/>
		<path id="XMLID_15_" fill="#2A5463" d="M614.2,76.3l-3.7,16.6c2.2,2.1,4.8,3.7,7.7,4.9l4.8-21.5H614.2z"/>
		<path id="XMLID_18_" fill="#2A5463" d="M627.8,76.3l-5.1,22.8c1,0.2,2,0.2,3,0.2l5.2-23H627.8z"/>
		<path id="XMLID_5_" d="M676.7,76.3l-4.8,21.5c1.5,0.6,3,0.9,4.6,1.2l5.1-22.7H676.7z"/>
		<path id="XMLID_8_" d="M657.3,76.3c0,5,2.6,12.2,6.9,16.4l3.7-16.4H657.3z"/>
		<path id="XMLID_9_" d="M703.6,76.3h-19l-5.2,23.1c0.3,0,0.7,0.1,1,0.1c12.7,0,23.2-10.4,23.2-23.1V76.3z"/>
		<path id="XMLID_16_" fill="#2A5463" d="M667.9,76.3l-3.7,16.5c2.2,2.1,4.8,3.8,7.7,4.9l4.8-21.5h-8.8V76.3z"/>
		<path id="XMLID_20_" fill="#2A5463" d="M681.5,76.3l-5.1,22.8c1,0.2,2,0.2,3,0.2l5.2-23H681.5z"/>
	</g>
	<g id="mouth">
		<path id="XMLID_13_" fill="#F2C096" d="M661.5,197.4c29.9,0,54.1-24.1,54.1-54.1H607.3C607.3,173.3,631.6,197.4,661.5,197.4z"/>
		<g id="Calque_5">
			<rect id="XMLID_25_" x="611.5" y="134.3" fill="#EDEDED" width="98.6" height="9.3"/>
		</g>
	</g>
	<g id="hairs">
		<g id="XMLID_2_">
			<g id="XMLID_82_">
				<path id="XMLID_92_" fill="#E8593B" d="M618.5,38h36.6c6.2,0,11.2-5,11.2-11.2v-71.2c0-6.2-5-11.2-11.2-11.2h-36.6
					c-6.2,0-11.2,5-11.2,11.2v71.2C607.3,33,612.3,38,618.5,38z"/>
				<rect id="XMLID_91_" x="636.8" y="-17.6" fill="#E8593B" width="29.5" height="55.6"/>
				<rect id="XMLID_90_" x="607.3" y="-55.6" fill="#E8593B" width="31.1" height="70.9"/>
				<path id="XMLID_89_" fill="#E8593B" d="M649.8,38h24.5c5.6,0,10.2-4.6,10.2-10.2V-23c0-5.6-4.6-10.2-10.2-10.2h-24.5
					c-5.6,0-10.2,4.6-10.2,10.2v50.9C639.6,33.4,644.2,38,649.8,38z"/>
				<rect id="XMLID_88_" x="662" y="-4.3" fill="#E8593B" width="22.4" height="42.3"/>
				<rect id="XMLID_87_" x="639.6" y="-33.2" fill="#E8593B" width="23.6" height="53.9"/>
				<path id="XMLID_86_" fill="#E8593B" d="M659.7,28.4V3.9c0-5.6,4.6-10.2,10.2-10.2h50.9c5.6,0,10.2,4.6,10.2,10.2v24.5
					c0,5.6-4.6,10.2-10.2,10.2h-50.9C664.2,38.6,659.7,34,659.7,28.4z"/>
				<rect id="XMLID_85_" x="677" y="15" fill="#E8593B" width="53.9" height="23.6"/>
				<rect id="XMLID_84_" x="659.7" y="-6.3" fill="#E8593B" width="42.3" height="22.4"/>
				<path id="XMLID_83_" fill="#E8593B" d="M617.7,23.3h-2.5c-1,0-1.7-0.8-1.7-1.7v-71c0-1,0.8-1.7,1.7-1.7h2.5c1,0,1.7,0.8,1.7,1.7
					v71C619.4,22.5,618.7,23.3,617.7,23.3z"/>
			</g>
			<g id="XMLID_4_">
				<path id="XMLID_80_" fill="#E8593B" d="M618.5,38h36.6c6.2,0,11.2-5,11.2-11.2v-71.2c0-6.2-5-11.2-11.2-11.2h-36.6
					c-6.2,0-11.2,5-11.2,11.2v71.2C607.3,33,612.3,38,618.5,38z"/>
				<rect id="XMLID_64_" x="636.8" y="-17.6" fill="#E8593B" width="29.5" height="55.6"/>
				<rect id="XMLID_23_" x="607.3" y="-55.6" fill="#E8593B" width="31.1" height="70.9"/>
				<path id="XMLID_22_" fill="#E11339" d="M649.8,38h24.5c5.6,0,10.2-4.6,10.2-10.2V-23c0-5.6-4.6-10.2-10.2-10.2h-24.5
					c-5.6,0-10.2,4.6-10.2,10.2v50.9C639.6,33.4,644.2,38,649.8,38z"/>
				<rect id="XMLID_21_" x="662" y="-4.3" fill="#E11339" width="22.4" height="42.3"/>
				<rect id="XMLID_19_" x="639.6" y="-33.2" fill="#E11339" width="23.6" height="53.9"/>
				<path id="XMLID_17_" fill="#E8593B" d="M659.7,28.4V3.9c0-5.6,4.6-10.2,10.2-10.2h50.9c5.6,0,10.2,4.6,10.2,10.2v24.5
					c0,5.6-4.6,10.2-10.2,10.2h-50.9C664.2,38.6,659.7,34,659.7,28.4z"/>
				<rect id="XMLID_14_" x="677" y="15" fill="#E8593B" width="53.9" height="23.6"/>
				<rect id="XMLID_7_" x="659.7" y="-6.3" fill="#E8593B" width="42.3" height="22.4"/>
				<path id="XMLID_6_" fill="#E0A14C" d="M617.7,23.3h-2.5c-1,0-1.7-0.8-1.7-1.7v-71c0-1,0.8-1.7,1.7-1.7h2.5c1,0,1.7,0.8,1.7,1.7
					v71C619.4,22.5,618.7,23.3,617.7,23.3z"/>
			</g>
		</g>
	</g>
</g>
</svg>
