<svg xmlns="http://www.w3.org/2000/svg" viewBox="0 0 369.97 39.53"><path d="M92.29.18c4 2.11 4.71 4.54 2.67 8.6-9.51 18.9-30.3 30.55-51.24 28.45-19.89-2-34.2-12.16-43.18-29.88a3.52 3.52 0 00-.36-.5v-3A4.08 4.08 0 013.86.19h3a5.55 5.55 0 013.78 3.23 41.78 41.78 0 0020.69 19.8 40 40 0 0012.42 3.25 38 38 0 005.84.28 58.38 58.38 0 009.57-1.55c1.07-.26 2.1-.66 3.15-1a40.17 40.17 0 0010-5.24 41.6 41.6 0 0012.46-14c.45-.82.81-1.7 1.33-2.48A5.09 5.09 0 0189.26.25z" fill="#eb2227"/><path d="M335.8 39.52c-1.11-.81-2.5-1.08-3.59-1.94a8.19 8.19 0 01-2.73-3.7c-.09-.28-.31-.63 0-.92.5-.47 3.46.11 3.9.76a6.06 6.06 0 009.63.52c1.3-1.57 1.33-3.4 1.11-5.34-5.61 3.38-10.56 3.06-13.71-.81a9.82 9.82 0 01.32-12.43c3.37-3.61 8.52-3.77 13.3-.39.54-.59-.34-1.77.53-2a11.88 11.88 0 013.16-.07c.61 0 .47.51.47.87 0 5.83.15 11.67-.07 17.5-.13 3.44-2.19 5.83-5.35 7.25-.53.24-1.21.17-1.6.7zm34.18-7.66a1.87 1.87 0 00-.32-.08c-3.67-.16-3.67-.16-3.67-3.78v-7.17c0-3-1.79-4.77-4.61-4.73s-4.47 1.83-4.48 4.7c0 3.16-.06 6.33 0 9.49 0 1.16-.29 1.65-1.48 1.49a6.36 6.36 0 00-1.51 0c-.81.07-1.05-.25-1-1.05v-24c0-.84.22-1.13 1.12-1.16 2.89-.07 2.89-.11 2.89 2.73v7.11a7.57 7.57 0 016.53-2.56c3.55.34 5.54 2.45 6.56 5.67z" fill="#4f4953"/><path d="M3.86.18A7 7 0 00.18 3.84C.18 2.62-.3.92.31.31S2.63.18 3.86.18z" fill="#fff8f4"/><path d="M62.48.18v.3a2 2 0 01-2.71 0V.19z" fill="#fdeaf2"/><path d="M111.71 18.56a12.89 12.89 0 0110.85-13c7.6-1.11 13.81 2.4 15.79 8.84.42 1.35.38 1.87-1.32 1.87s-2.76-.27-3.57-2.15c-1.79-4.18-6.77-5.91-11.34-4.35a9.28 9.28 0 00-5.94 10.66c.88 4.44 4 7.37 8.17 7.77a9.06 9.06 0 009.73-6.21c.46-1.25 1.27-.85 2-.86 3.06 0 3.06 0 2 2.81-2.32 6-8.63 9.17-15.76 7.9-6.34-1.14-10.63-6.5-10.61-13.28zM232.39 29.6c-.34.75.31 1.83-.49 2a9.42 9.42 0 01-3.31 0c-.45 0-.31-.65-.31-1v-24c0-.89.3-1.09 1.15-1.11 2.86-.06 2.86-.1 2.86 2.76v7c5.46-3.53 10.3-3.29 13.63.55 3.1 3.57 3 9.9-.31 13.48s-8.26 3.72-13.22.32zm-12.52-.32c-5.52 4.51-11 2.82-13.56 0a10.6 10.6 0 01-.08-13.6c2.43-2.77 8.12-4.63 13.23-.39.56-.6-.31-1.78.55-2a11.38 11.38 0 013.15-.09c.59 0 .52.46.52.84v16.81c0 .74-.33 1-1 .92a3.64 3.64 0 00-.66 0c-1.52.1-3.04.24-2.15-2.49zm-68.45-16.43c5.78 0 9.86 4 9.84 9.66s-4.19 9.61-9.94 9.62-10.07-4.13-10-9.72 4.16-9.58 10.1-9.56z" fill="#4f4953"/><path d="M191.1 21.34c2.25-2.36 4.3-4.39 6.21-6.54a4 4 0 013.87-1.64 18.34 18.34 0 002.51 0c-2.71 2.81-5.16 5.43-7.71 7.93-.79.78-.7 1.19 0 1.93 2.54 2.78 5 5.61 7.76 8.72h-4.29c-.75 0-1-.61-1.41-1-2.22-2.49-4.41-5-6.92-7.86 0 2.68-.07 5 0 7.25 0 1.27-.25 1.75-1.63 1.68-2.84-.15-2.38.3-2.39-2.4V7.26c0-1.29.28-1.75 1.64-1.68 2.37.1 2.38 0 2.38 2.39zm-17.38 10.79c-5.72 0-10-4.06-10.06-9.54 0-5.68 4.1-9.73 10-9.74s10.11 4 10.08 9.64-4.31 9.62-10.02 9.64zm121.79-19.28c5.86 0 9.83 4 9.81 9.82 0 5.45-4.22 9.46-9.89 9.47s-10.14-4.21-10.07-9.67c.07-5.72 4.23-9.64 10.15-9.62zm-34.91 0c5.83 0 9.88 3.94 9.88 9.59s-4.1 9.67-9.84 9.7-10.16-4.14-10.16-9.67 4.25-9.63 10.12-9.62zm47.38 6.84c0-1.77.05-3.55 0-5.32 0-.94.25-1.21 1.2-1.21 2.81 0 2.81-.06 2.81 2.76v8.16c0 2.72 1.66 4.59 4.33 4.68a4.37 4.37 0 004.72-4.51c.08-3.22.05-6.44 0-9.66 0-1 .1-1.47 1.31-1.44 2.7.06 2.7 0 2.7 2.72v8.32c-.05 4.74-3.61 8-8.64 7.94s-8.4-3.2-8.41-7.94c-.02-1.5-.02-3-.02-4.5zm-29.57-3.33a7.32 7.32 0 015.57-3.65c.74-.08 1.06 0 1 .78a6.56 6.56 0 000 1.33c.23 1.3-.26 1.8-1.6 2-3.62.48-5.27 2.45-5.29 6 0 2.45-.09 4.89 0 7.33.07 1.39-.44 1.79-1.71 1.62a5.08 5.08 0 00-1.17 0c-.83.09-1.2-.18-1.2-1.09q.06-8.24 0-16.48c0-.8.24-1.13 1-1h.17c2.72-.08 2.72-.08 2.83 2.57.1.18-.03.42.4.59z" fill="#4f4953"/><path d="M59.78.47h2.71a11.31 11.31 0 0110 11.22v7.49a32.57 32.57 0 01-10.01 5.29 2.8 2.8 0 01-.5-2.2v-8.49a11.77 11.77 0 000-1.31c-.08-.73.13-1.82-.94-1.83s-1 1.06-1 1.8c-.07 3.55 0 7.1 0 10.65a3.34 3.34 0 01-.5 2.38 34 34 0 01-10.06 1.63V11.84A11.37 11.37 0 0159.78.47z" fill="#f6adcd"/><path d="M62.48 24.47a10.22 10.22 0 01-3 1v-13.1a5.57 5.57 0 010-1c.17-.87.51-1.63 1.6-1.53s1.39.75 1.39 1.71M344.2 22.03a5.82 5.82 0 01-5.83 6.16 5.88 5.88 0 01-5.92-6.09 5.86 5.86 0 015.85-6.16 5.8 5.8 0 015.9 6.09zm-106.22 6.52c-3.36 0-5.77-2.62-5.75-6.18a5.89 5.89 0 1111.75.25 5.76 5.76 0 01-6 5.93zm-18.34-6.08c0 3.59-2.37 6.12-5.8 6.13a5.73 5.73 0 01-5.9-6 5.86 5.86 0 1111.7-.08zm-74.18 0c0-3.56 2.51-6.21 5.83-6.17a6 6 0 015.88 6.17 5.79 5.79 0 01-5.91 6.08c-3.46 0-5.82-2.48-5.8-6.08zm34 0c0 3.66-2.32 6.08-5.82 6.08a5.79 5.79 0 01-5.88-6.08 6 6 0 015.91-6.16c3.39.01 5.8 2.58 5.79 6.16zm110.09 0a5.85 5.85 0 015.85-6.16 6 6 0 015.9 6.2 5.84 5.84 0 01-5.94 6.07c-3.45-.03-5.82-2.52-5.81-6.11zm-34.84-.06a5.83 5.83 0 015.87-6.13 6 6 0 015.88 6.19 5.85 5.85 0 01-6 6c-3.42.08-5.76-2.41-5.75-6.06z" fill="#fff"/></svg>